<svg width="1440" height="896" viewBox="0 0 1440 896" fill="none" xmlns="http://www.w3.org/2000/svg">
<path fill-rule="evenodd" clip-rule="evenodd" d="M1440 398.933L1379.85 413.867C1319.69 430.933 1200.31 465.067 1080 430.933C959.692 398.933 840.308 298.667 720 264.533C600.617 232.533 480.309 264.533 360 232.533C240.617 198.4 120.309 98.1333 60.1543 49.0667L3.62396e-05 0V896H60.1543C120.309 896 240.617 896 360 896C480.309 896 600.617 896 720 896C840.308 896 959.692 896 1080 896C1200.31 896 1319.69 896 1379.85 896H1440V398.933Z" fill="#D6EAE5"/>
</svg>
